<svg width="24" height="24" viewBox="0 0 24 24" fill="none" xmlns="http://www.w3.org/2000/svg">
<path d="M17.7132 11.4258C21.1854 11.4258 24 14.2406 24 17.7129C24 21.1852 21.1854 24 17.7132 24C14.2411 24 11.4265 21.1852 11.4265 17.7129C11.4265 14.2406 14.2411 11.4258 17.7132 11.4258ZM11.4519 13.7112C10.7123 14.8663 10.2834 16.2395 10.2834 17.7129C10.2834 19.5765 10.9695 21.28 12.1028 22.5843C11.1935 22.7673 10.2049 22.8581 9.14035 22.8581C5.23001 22.8581 2.34614 21.6325 0.583378 19.1585C0.251362 18.6925 0.0537253 18.146 0.00950374 17.5786L0 17.3343V16.2826C0 14.9221 1.05698 13.8083 2.39458 13.7178L2.57058 13.7119L11.4519 13.7112ZM17.7132 13.712L17.6105 13.7212C17.4105 13.7575 17.2468 13.8978 17.1775 14.0841L17.151 14.1808L17.1417 14.2836L17.1406 17.1413H14.2885L14.1858 17.1506C13.9858 17.1869 13.8221 17.3272 13.7528 17.5134L13.7263 17.6101L13.717 17.7129L13.7263 17.8157C13.7625 18.0156 13.9028 18.1793 14.0891 18.2487L14.1858 18.2752L14.2885 18.2845H17.1406L17.1417 21.1422L17.151 21.245C17.1872 21.445 17.3275 21.6087 17.5138 21.678L17.6105 21.7045L17.7132 21.7138L17.816 21.7045C18.016 21.6683 18.1796 21.528 18.249 21.3417L18.2755 21.245L18.2848 21.1422L18.2836 18.2845H21.1468L21.2496 18.2752C21.4496 18.2389 21.6133 18.0986 21.6826 17.9124L21.7092 17.8157L21.7184 17.7129L21.7092 17.6101C21.6729 17.4102 21.5326 17.2465 21.3463 17.1771L21.2496 17.1506L21.1468 17.1413H18.2836L18.2848 14.2836L18.2755 14.1808C18.2392 13.9808 18.0989 13.8171 17.9127 13.7477L17.816 13.7212L17.7132 13.712ZM9.14035 0C12.2968 0 14.8556 2.55893 14.8556 5.71555C14.8556 8.87216 12.2968 11.4311 9.14035 11.4311C5.9839 11.4311 3.4251 8.87216 3.4251 5.71555C3.4251 2.55893 5.9839 0 9.14035 0Z" fill="#868686"/>
</svg>
