<svg width="24" height="24" viewBox="0 0 24 24" fill="none" xmlns="http://www.w3.org/2000/svg">
<path d="M12 0.959991C5.90848 0.959991 0.960022 5.90845 0.960022 12C0.960022 18.0915 5.90848 23.04 12 23.04C18.0916 23.04 23.04 18.0915 23.04 12C23.04 5.90845 18.0916 0.959991 12 0.959991ZM12 1.91999C17.5727 1.91999 22.08 6.42728 22.08 12C22.08 17.5727 17.5727 22.08 12 22.08C6.42731 22.08 1.92002 17.5727 1.92002 12C1.92002 6.42728 6.42731 1.91999 12 1.91999ZM11.52 6.23999V11.52H6.24002V12.48H11.52V17.76H12.48V12.48H17.76V11.52H12.48V6.23999H11.52Z" fill="#868686"/>
</svg>
