<svg width="25" height="12" viewBox="0 0 25 12" fill="none" xmlns="http://www.w3.org/2000/svg">
<path d="M24.0155 5.29959L18.9822 0.143777C18.7808 -0.0521286 18.4637 -0.0470051 18.2725 0.154073C18.0862 0.355151 18.0862 0.669674 18.2725 0.870752L22.4452 5.14497H1.71764L5.89034 0.870752C6.08159 0.664502 6.07659 0.339684 5.88029 0.143777C5.68399 -0.047005 5.37694 -0.047005 5.18063 0.143777L0.147227 5.29959C-0.0490756 5.50067 -0.0490756 5.82549 0.147227 6.02657L5.18063 11.1824C5.38198 11.3783 5.69909 11.3732 5.89034 11.1721C6.07659 10.9711 6.07659 10.6565 5.89034 10.4555L1.71764 6.18124H22.4401L18.2674 10.4555C18.0661 10.6514 18.0611 10.9814 18.2574 11.1824C18.4486 11.3887 18.7708 11.3938 18.9671 11.1927C18.9721 11.1876 18.9771 11.1824 18.9771 11.1824L24.0105 6.02657C24.2119 5.83066 24.2119 5.50067 24.0155 5.29959Z" fill="#868686"/>
</svg>
