<svg width="482" height="432" viewBox="0 0 482 432" fill="none" xmlns="http://www.w3.org/2000/svg">
<path d="M666.301 332.571L665.773 328.267L455.215 354.117C457.621 349.683 459.943 345.179 462.033 340.493C475.565 310.16 482.742 281.424 483.987 252.649C484.673 236.693 482.351 221.34 477.464 206.308C478.056 203.584 478.414 200.909 478.478 198.295C479.29 164.402 460.513 135.094 452.091 123.692C454.761 100.627 451.151 76.9093 434.802 59.3545C437.789 57.7559 440.808 56.1773 444.217 54.8703C444.322 54.83 444.386 54.7496 444.491 54.6993C450.74 53.7442 456.365 51.7132 460.25 47.6613C464.788 42.9358 457.4 35.8575 452.84 40.6032C450.676 42.8654 447.447 44.1926 443.668 44.8964C443.478 44.8863 443.246 44.9567 443.045 44.9668C433.757 46.495 421.429 44.3836 413.017 42.4934L412.911 42.3828C411.402 40.8445 375.505 4.67909 322.477 0.184811C272.11 -3.9073 184.536 61.2849 180.821 64.07L169.949 72.2441L183.671 70.3941C184.684 70.2534 285.367 56.9012 329.729 70.0825C336.716 72.1536 343.545 73.0284 350.089 73.0284C376.497 73.0284 398.314 58.8116 407.771 51.5222C412.383 52.6281 417.83 53.7341 423.635 54.4983C404.256 67.0863 393.131 85.1237 385.426 106.389C341.962 83.8971 294.043 77.4724 249.586 88.7634C203.957 100.336 165.115 129.674 140.227 171.38C128.933 190.292 118.959 210.27 109.312 229.584C105.185 237.829 101.079 246.063 96.8573 254.247C77.9958 290.755 52.4953 315.006 18.8782 328.378C9.04108 332.289 2.97205 337.759 0.839972 344.636C-1.36599 351.744 0.776643 359.898 7.22565 368.887C32.0612 403.464 60.9286 428.278 92.1709 449.432C115.033 464.916 162.002 478.388 171.195 480.279C183.977 482.903 198.247 484.25 213.478 484.25C230.988 484.25 249.776 482.279 268.933 478.6C306.371 500.257 355.356 512 407.908 512C422.484 512 437.335 511.105 452.281 509.275C580.174 493.57 676.18 414.302 666.301 332.571ZM321.802 7.27311C359.208 10.4402 388.202 30.8907 400.678 41.2266C390.873 38.2605 376.149 37.4059 359.008 37.9086L358.944 37.8885L358.934 37.9187C351.186 38.1399 342.964 38.6426 334.457 39.3464L334.225 39.266L334.183 39.3766C281.271 43.8206 218.122 56.2276 198.838 60.1789C225.405 42.0108 285.493 4.28697 321.802 7.27311ZM243.791 57.8765C233.057 58.4094 222.935 59.1635 214.079 59.9477C222.639 58.2988 233.384 56.298 245.533 54.2067L243.791 57.8765ZM262.769 57.1928C257.491 57.2934 252.288 57.4743 247.158 57.7056L249.1 53.5934C254.272 52.7086 259.634 51.8238 265.175 50.939L262.769 57.1928ZM272.542 57.0923C270.347 57.0923 268.152 57.1325 265.946 57.1627L268.553 50.4061C274.284 49.5113 280.131 48.6265 286.074 47.782L281.303 57.2632C278.379 57.2029 275.487 57.0923 272.542 57.0923ZM284.575 57.3235L289.641 47.2692C295.869 46.3945 302.159 45.56 308.429 44.8059L302.423 58.2988C296.66 57.8061 290.686 57.4944 284.575 57.3235ZM305.537 58.5501L311.838 44.4037C318.994 43.5692 326.087 42.8252 333.011 42.2119L325.01 61.677C319.015 60.3398 312.587 59.2439 305.537 58.5501ZM331.945 63.2757C330.721 62.9037 329.232 62.6825 327.945 62.3607L336.346 41.9304C343.777 41.317 350.954 40.8847 357.762 40.6434L346.817 65.7189C341.962 65.4977 337.001 64.7838 331.945 63.2757ZM349.994 65.8395L361.045 40.5227C368.306 40.3418 375.03 40.4222 381.099 40.8143L373.193 61.8681C366.1 64.2107 358.269 65.8094 349.994 65.8395ZM376.835 60.5711L384.17 41.0456C392.382 41.7594 399.137 43.1168 403.834 45.2985C398.873 49.1594 389.237 55.8556 376.835 60.5711ZM580.511 347.35C593.262 350.91 604.914 357.083 613.062 367.459C586.285 372.406 559.476 377.192 532.635 381.797C522.111 372.014 510.364 363.558 497.698 357.515L580.511 347.35ZM557.248 414.423C524.307 419.752 491.671 426.257 459.289 433.898C452.471 425.533 444.818 417.721 437.356 410.381C434.39 407.455 431.287 404.539 428.195 401.634C462.719 396.305 497.202 390.745 531.632 384.853C541.363 394.073 550.018 404.278 557.248 414.423ZM492.357 358.179C505.614 363.769 518.016 372.335 529.078 382.4C494.637 388.282 460.133 393.842 425.598 399.16C414.093 388.553 401.554 378.68 387.896 370.998L492.357 358.179ZM421.788 399.744C394.672 403.906 367.536 407.888 340.357 411.698C328.852 399.924 315.617 389.92 300.924 381.676L383.168 371.581C397.301 379.022 410.019 389.056 421.788 399.744ZM470.984 198.104C470.298 227.342 428.247 267.469 409.259 284.119C409.301 283.948 409.354 283.747 409.396 283.566C417.84 262.482 453.252 171.008 448.766 131.866C457.421 144.615 471.659 169.922 470.984 198.104ZM443.805 163.035C442.887 168.223 441.779 173.622 440.48 179.192L421.418 181.575C421.228 180.378 421.059 179.152 420.827 178.006C419.983 173.974 419.793 170.153 420.004 166.493L443.805 163.035ZM420.215 163.588C421.028 157.284 423.213 151.623 425.989 146.666L446.064 144.856C445.779 149.552 445.198 154.649 444.312 160.079L420.215 163.588ZM421.746 216.574C422.168 211.919 422.453 207.334 422.569 202.87L434.728 201.09C433.419 205.675 432.058 210.26 430.643 214.804L421.746 216.574ZM429.672 217.851C428.311 222.204 426.917 226.487 425.524 230.67L420.036 231.263C420.585 227.342 421.081 223.401 421.482 219.48L429.672 217.851ZM422.611 199.984C422.653 194.505 422.442 189.246 421.851 184.4L439.752 182.158C438.486 187.396 437.082 192.725 435.583 198.084L422.611 199.984ZM424.532 233.656C423.054 238.04 421.587 242.273 420.152 246.325L417.513 246.858C418.273 242.715 418.991 238.482 419.635 234.189L424.532 233.656ZM419.043 249.452C417.481 253.845 415.972 257.958 414.558 261.768C415.37 257.988 416.183 253.986 416.964 249.874L419.043 249.452ZM444.576 125.954C445.916 130.207 446.433 135.617 446.233 141.971L427.793 143.63C433.398 134.913 440.586 128.759 444.47 125.814C444.502 125.854 444.544 125.914 444.576 125.954ZM425.978 64.9346C440.301 79.624 443.552 99.0992 442.042 118.625C439.34 120.455 432.216 125.703 425.577 133.927C414.146 124.527 402.599 116.151 394.63 111.345C401.037 92.8354 410.114 76.5172 425.978 64.9346ZM382.091 116.091C380.983 119.68 379.906 123.3 378.903 127.03C377.236 133.254 387.337 135.908 389.004 129.684C389.764 126.859 390.588 124.104 391.4 121.339C399.01 126.186 409.323 133.787 419.466 142.172C419.54 142.333 419.55 142.464 419.624 142.614C418.041 145.369 416.658 148.345 415.508 151.502C407.349 153.925 391.759 151.1 375.821 144.112C352.136 133.736 338.922 119.741 341.434 113.175C341.972 111.798 343.196 110.722 345.086 109.968C347.165 109.133 349.878 108.741 353.055 108.741C359.62 108.741 368.169 110.471 377.246 113.638C378.861 114.442 380.487 115.236 382.091 116.091ZM173.411 470.456C164.524 468.626 121.176 457.164 97.8283 440.946C68.032 420.254 39.9456 396.647 15.9334 363.206C11.3526 356.842 9.67437 351.543 10.9409 347.481C12.1231 343.65 16.1656 340.343 22.9207 337.648C58.9971 323.301 86.2708 297.461 106.293 258.681C110.536 250.467 114.674 242.182 118.811 233.908C128.374 214.754 138.274 194.947 149.378 176.347C172.863 137.004 209.414 109.345 252.277 98.4759C287.794 89.4873 325.675 92.5639 361.446 106.62C354.237 105.514 348.094 105.685 343.935 107.334C341.233 108.399 339.45 110.038 338.626 112.19C335.164 121.199 350.954 136.35 374.555 146.696C387.221 152.246 399.528 155.253 408.658 155.253C410.768 155.253 412.647 155.041 414.389 154.71C412.246 162.019 411.55 170.274 413.471 179.413C421.334 216.715 399.158 292.846 398.937 293.61L395.675 304.68L404.932 297.31C407.317 295.41 452.903 258.782 471.068 223.28C472.926 232.751 473.844 242.363 473.422 252.227C472.24 279.775 465.326 307.364 452.312 336.562C449.336 343.238 445.906 349.552 442.275 355.706L201.72 385.235L202.226 389.428C205.815 419.018 222.787 445.903 251.327 467.178C252.963 468.394 254.81 469.46 256.51 470.626C226.059 475.332 197.023 475.302 173.411 470.456ZM451.109 500.789C375.79 510.06 303.151 494.958 256.858 460.441C231.611 441.62 216.095 418.254 211.757 392.615L236.318 389.599C253.058 428.861 300.914 454.429 339.059 470.647C378.344 487.347 421.893 498.567 465.263 498.598C460.566 499.372 455.901 500.206 451.109 500.789ZM484.093 494.998C435.15 498.859 385.057 487.075 340.568 468.193C303.141 452.308 256.003 427.504 239.358 389.237L296.111 382.269C311.268 390.383 324.863 400.387 336.716 412.211C323.533 414.051 310.36 415.991 297.156 417.751C295.256 418.002 296.069 420.747 297.948 420.496C311.754 418.656 325.528 416.635 339.312 414.704C345.234 420.868 350.828 427.353 355.767 434.451C356.823 435.969 359.419 434.542 358.353 433.013C353.677 426.307 348.484 420.093 342.954 414.192C370.143 410.371 397.301 406.379 424.437 402.207C426.844 404.429 429.282 406.651 431.625 408.883C439.953 416.856 448.586 425.392 456.186 434.592C444.449 437.387 432.744 440.333 421.07 443.44C419.223 443.932 420.004 446.687 421.862 446.184C433.926 442.977 446.022 439.951 458.149 437.075C464.376 444.918 469.812 453.232 473.528 462.151C474.224 463.84 477.127 463.106 476.409 461.397C472.704 452.509 467.342 444.214 461.199 436.381C494.036 428.66 527.114 422.074 560.531 416.725C562.04 416.484 561.798 414.755 560.7 414.192C553.47 403.896 544.846 393.61 535.168 384.25C566.547 378.861 597.895 373.301 629.18 367.439C631.069 367.087 630.267 364.342 628.388 364.694C624.377 365.448 620.345 366.122 616.334 366.866C608.967 357.013 598.729 350.598 587.266 346.516L657.783 337.859C662.733 406.369 588.026 472.205 484.093 494.998Z" fill="#282B2E"/>
</svg>
