<svg width="32" height="32" viewBox="0 0 32 32" fill="none" xmlns="http://www.w3.org/2000/svg">
<path d="M0 0H32V6.94222H0V0ZM30.3158 1.54272H28.6316V5.3995H30.3158V1.54272ZM26.9474 1.54272H25.2632V5.3995H26.9474V1.54272ZM23.5789 1.54272H21.8947V5.3995H23.5789V1.54272ZM1.68421 3.85679V5.3995H3.36842V3.85679H1.68421ZM0 8.48493H32V15.4272H0V8.48493ZM30.3158 10.0276H28.6316V13.8844H30.3158V10.0276ZM26.9474 10.0276H25.2632V13.8844H26.9474V10.0276ZM23.5789 10.0276H21.8947V13.8844H23.5789V10.0276ZM1.68421 12.3417V13.8844H3.36842V12.3417H1.68421ZM23.3684 23.9121H32V26.9975H23.3684L21.6842 25.4548L23.3684 23.9121ZM8.63158 23.9121L10.3158 25.4548L8.63158 26.9975H0V23.9121H8.63158ZM8.85448 29.3059L13.0588 25.4548L8.85448 21.6037L11.7957 18.9096L16 22.7608L20.2043 18.9096L23.1455 21.6037L19.1517 25.4548L23.1455 29.3059L20.2043 32L16 28.3417L11.7957 32L8.85448 29.3059ZM14.3158 18.7054V16.9699H17.6842V18.7054L16 20.2481L14.3158 18.7054Z" fill="#CB0105"/>
</svg>
