<svg width="16" height="16" viewBox="0 0 16 16" fill="none" xmlns="http://www.w3.org/2000/svg">
<path d="M6.68818 1H2.70841C2.25531 1 1.82077 1.17998 1.50039 1.50036C1.18 1.82075 1 2.25529 1 2.70838L1 13.2916C1 13.7446 1.18 14.1792 1.50039 14.4996C1.82078 14.8199 2.25531 14.9999 2.70841 14.9999L13.2613 15C13.7143 15 14.1489 14.82 14.4693 14.4997C14.7897 14.1793 14.9697 13.7447 14.9697 13.2916L14.9697 9.31182M11.9067 1.53073C12.2465 1.19091 12.7075 1 13.188 1C13.6685 1 14.1295 1.19091 14.4693 1.53073C14.8091 1.87055 15 2.33144 15 2.81202C15 3.29259 14.8091 3.75348 14.4693 4.0933L7.54238 11.0201L4.12556 11.8743L4.97977 8.45757L11.9067 1.53073Z" stroke="white" stroke-width="2" stroke-linecap="square" stroke-linejoin="round"/>
</svg>
