<svg width="48" height="48" viewBox="0 0 48 48" fill="none" xmlns="http://www.w3.org/2000/svg">
<circle cx="24" cy="24" r="24" fill="#868686"/>
<path fill-rule="evenodd" clip-rule="evenodd" d="M27.9279 12.2921V17.1818H32.6874L27.9279 12.2921ZM33.2372 19.9091H27.9279C26.4618 19.9091 25.2733 18.688 25.2733 17.1818V11.7273H14.6547V36.2727H33.2372V19.9091ZM14.6547 9H28.4777L35.8919 16.617V36.2727C35.8919 37.779 34.7034 39 33.2372 39H14.6547C13.1885 39 12 37.779 12 36.2727V11.7273C12 10.221 13.1885 9 14.6547 9ZM22.6186 27.5261V21.2727H25.2733V27.5261L26.9894 25.763L28.8665 27.6915L23.9459 32.7467L19.0254 27.6915L20.9025 25.763L22.6186 27.5261Z" fill="white"/>
</svg>
