<svg width="32" height="32" viewBox="0 0 32 32" fill="none" xmlns="http://www.w3.org/2000/svg">
<g clip-path="url(#clip0_4024_30)">
<path fill-rule="evenodd" clip-rule="evenodd" d="M22.2804 7.57517C22.8297 7.31142 23.3983 7.14897 24.0017 7.14725C25.5643 7.14266 27.1482 8.33475 28.0282 9.62302C28.7335 10.6547 29.3239 12.0598 29.6187 13.4128C28.4211 13.4605 26.9257 13.0995 25.3577 12.5773C24.1593 12.1782 23.1699 11.5254 22.3952 10.4675L22.4135 10.5558L22.3872 10.502C22.03 9.82412 21.688 9.15007 21.4046 8.48268L22.2642 7.58863L22.2804 7.57517Z" fill="#5E990B"/>
<path fill-rule="evenodd" clip-rule="evenodd" d="M22.248 7.59201L22.2804 7.57518L22.2669 7.58724L21.4073 8.48129C21.2338 8.07388 21.0791 7.63139 20.9157 7.25083L22.3309 5.85356C22.5894 5.5977 22.9569 5.60396 23.1523 5.86667C23.3478 6.12938 23.2962 6.54927 23.0377 6.80514L22.248 7.59201Z" fill="#7F573C"/>
<path fill-rule="evenodd" clip-rule="evenodd" d="M22.2804 7.57517C22.8297 7.31142 23.3983 7.14897 24.0017 7.14725C25.5643 7.14266 27.1482 8.33475 28.0282 9.62302C28.7335 10.6547 29.3239 12.0598 29.6187 13.4128C28.4211 13.4605 26.9257 13.0995 25.3577 12.5773C24.1593 12.1782 23.1699 11.5254 22.3952 10.4675L22.4135 10.5558L22.3872 10.502C22.03 9.82412 21.688 9.15007 21.4046 8.48268L22.2642 7.58863L22.2804 7.57517Z" fill="#5E990B"/>
<path fill-rule="evenodd" clip-rule="evenodd" d="M22.248 7.59201L22.2804 7.57518L22.2669 7.58724L21.4073 8.48129C21.2338 8.07388 21.0791 7.63139 20.9157 7.25083L22.3309 5.85356C22.5894 5.5977 22.9569 5.60396 23.1523 5.86667C23.3478 6.12938 23.2962 6.54927 23.0377 6.80514L22.248 7.59201Z" fill="#7F573C"/>
<path fill-rule="evenodd" clip-rule="evenodd" d="M21.5999 11.9809C21.55 11.3726 21.4353 10.7676 21.2476 10.1652C21.0627 9.57647 20.8066 8.98598 20.4704 8.40005C19.3015 7.17093 18.0966 6.46656 16.8736 6.20351C15.5694 5.92192 14.2346 6.14714 12.8976 6.78C10.3999 7.96252 9.67581 9.46256 8.77823 11.3193C8.40542 12.0901 8.00671 12.9182 7.45154 13.8176C6.8355 14.8178 6.17654 15.6564 5.50351 16.3354C4.79009 17.0556 4.05983 17.5973 3.34785 17.9625C2.67501 18.4423 2.29935 18.9193 2.23531 19.3946C2.23443 19.4018 2.23356 19.409 2.23268 19.4162C2.1741 19.9089 2.42829 20.4734 3.00696 21.112C3.0142 21.1201 3.02143 21.1281 3.02867 21.1362C4.92562 23.2248 7.34938 24.2939 9.88649 24.3156C12.4065 24.3377 15.0398 23.3224 17.3821 21.2407C18.7898 19.989 19.9714 18.4872 20.7283 16.8167C21.4011 15.3281 21.7393 13.6982 21.5999 11.9809ZM22.3952 10.4675C22.4876 10.8917 22.5522 11.317 22.5861 11.7447C22.7453 13.6895 22.3619 15.5353 21.5979 17.223C20.7607 19.0721 19.467 20.7215 17.9309 22.0888C15.3786 24.3558 12.5051 25.4605 9.75451 25.4385C6.99224 25.4142 4.3565 24.2546 2.29681 21.9874C2.28957 21.9793 2.28145 21.9735 2.27421 21.9654C1.48307 21.0948 1.14858 20.2398 1.25095 19.3971C1.25091 19.387 1.25357 19.3755 1.25443 19.3632C1.372 18.4941 1.93839 17.7103 2.93017 17.0124C2.95173 16.9961 2.976 16.9835 3.00027 16.9708C3.61788 16.6598 4.25922 16.1846 4.89277 15.5447C5.50029 14.9319 6.09738 14.171 6.6606 13.2573C7.17905 12.4158 7.56348 11.6221 7.91928 10.8821C8.92682 8.79609 9.73857 7.11554 12.613 5.75397C14.1342 5.03369 15.6653 4.77897 17.1686 5.10035C18.4539 5.3766 19.7091 6.07163 20.9157 7.25587C21.6378 8.20623 22.1513 9.26674 22.3952 10.4675Z" fill="#597C0A"/>
<path fill-rule="evenodd" clip-rule="evenodd" d="M21.9483 11.906C21.8938 11.2782 21.77 10.6543 21.5715 10.0322C21.3757 9.42389 21.1042 8.8144 20.7508 8.20873C19.5241 6.93544 18.266 6.2014 16.988 5.9231C15.627 5.6255 14.2372 5.85061 12.8472 6.49422C10.2496 7.69832 9.50402 9.23989 8.58051 11.1489C8.19698 11.9405 7.78664 12.7915 7.21265 13.7159C6.57688 14.7432 5.89459 15.6024 5.1973 16.299C4.45602 17.0354 3.69699 17.5903 2.95891 17.9624C2.26089 18.4519 1.87177 18.941 1.80778 19.4314C1.8069 19.4386 1.80603 19.4458 1.80515 19.4531C1.74663 19.9609 2.01439 20.5436 2.62196 21.2043C2.62919 21.2124 2.63643 21.2204 2.64547 21.2292C4.63545 23.3943 7.16745 24.5084 9.81179 24.5468C12.439 24.5856 15.1768 23.5532 17.6071 21.4223C19.067 20.1419 20.2908 18.5996 21.0691 16.8824C21.7598 15.3559 22.1032 13.6777 21.9483 11.906Z" fill="#597C0A"/>
<path fill-rule="evenodd" clip-rule="evenodd" d="M22.1316 8.28006C25.0456 9.6762 25.9026 9.83271 28.1539 12.2803C25.2706 10.9019 24.5144 10.4973 22.1316 8.28006Z" fill="#537918"/>
</g>
<defs>
<clipPath id="clip0_4024_30">
<rect width="24" height="24" fill="white" transform="translate(9.20068) rotate(22.5421)"/>
</clipPath>
</defs>
</svg>
