<svg width="24" height="24" viewBox="0 0 24 24" fill="none" xmlns="http://www.w3.org/2000/svg">
<path d="M12.0004 15.0177C14.5269 15.0177 17.1585 15.5674 19.8951 16.6667C22.6317 17.766 24 19.2047 24 20.9827V24H0V20.9827C0 19.2047 1.36831 17.766 4.10492 16.6667C6.84153 15.5674 9.4731 15.0177 11.9996 15.0177H12.0004ZM12.0004 12.0004C10.3631 12.0004 8.95961 11.4155 7.78991 10.2458C6.62022 9.07613 6.03537 7.67264 6.03537 6.03537C6.03537 4.39809 6.62022 2.98288 7.78991 1.78973C8.95961 0.596576 10.3631 0 12.0004 0C13.6377 0 15.0411 0.596576 16.2108 1.78973C17.3805 2.98288 17.9654 4.39809 17.9654 6.03537C17.9654 7.67264 17.3805 9.07613 16.2108 10.2458C15.0411 11.4155 13.6377 12.0004 12.0004 12.0004Z" fill="#FF8307"/>
</svg>
