<svg width="32" height="32" viewBox="0 0 32 32" fill="none" xmlns="http://www.w3.org/2000/svg">
<g clip-path="url(#clip0_4024_22)">
<path fill-rule="evenodd" clip-rule="evenodd" d="M22.2803 7.57517C22.8296 7.31142 23.3982 7.14897 24.0016 7.14725C25.5642 7.14266 27.1481 8.33475 28.0281 9.62302C28.7334 10.6547 29.3238 12.0598 29.6186 13.4128C28.421 13.4605 26.9256 13.0995 25.3575 12.5773C24.1592 12.1782 23.1698 11.5254 22.3951 10.4675L22.4134 10.5558L22.3871 10.502C22.0298 9.82412 21.6879 9.15007 21.4045 8.48268L22.2641 7.58863L22.2803 7.57517Z" fill="#5E990B"/>
<path fill-rule="evenodd" clip-rule="evenodd" d="M22.2479 7.59201L22.2802 7.57518L22.2668 7.58724L21.4072 8.48129C21.2337 8.07388 21.079 7.63139 20.9155 7.25083L22.3308 5.85356C22.5893 5.5977 22.9568 5.60396 23.1522 5.86667C23.3477 6.12938 23.2961 6.54927 23.0376 6.80514L22.2479 7.59201Z" fill="#7F573C"/>
<path fill-rule="evenodd" clip-rule="evenodd" d="M21.5998 11.9809C21.5499 11.3726 21.4351 10.7676 21.2475 10.1652C21.0625 9.57647 20.8065 8.98598 20.4702 8.40005C19.3014 7.17093 18.0965 6.46656 16.8734 6.20351C15.5693 5.92192 14.2344 6.14714 12.8975 6.78C10.3998 7.96252 9.67568 9.46256 8.7781 11.3193C8.4053 12.0901 8.00659 12.9182 7.45142 13.8176C6.83537 14.8178 6.17642 15.6564 5.50339 16.3354C4.78997 17.0556 4.05971 17.5973 3.34773 17.9625C2.67488 18.4423 2.29923 18.9193 2.23519 19.3946C2.23431 19.4018 2.23344 19.409 2.23256 19.4162C2.17398 19.9089 2.42817 20.4734 3.00684 21.112C3.01408 21.1201 3.02131 21.1281 3.02854 21.1362C4.92549 23.2248 7.34926 24.2939 9.88637 24.3156C12.4064 24.3377 15.0397 23.3224 17.382 21.2407C18.7897 19.989 19.9713 18.4872 20.7282 16.8167C21.401 15.3281 21.7392 13.6982 21.5998 11.9809ZM22.395 10.4675C22.4875 10.8917 22.5521 11.317 22.586 11.7447C22.7452 13.6895 22.3618 15.5353 21.5978 17.223C20.7605 19.0721 19.4669 20.7215 17.9308 22.0888C15.3784 24.3558 12.5049 25.4605 9.75439 25.4385C6.99212 25.4142 4.35638 24.2546 2.29669 21.9874C2.28945 21.9793 2.28132 21.9735 2.27409 21.9654C1.48294 21.0948 1.14846 20.2398 1.25082 19.3971C1.25079 19.387 1.25345 19.3755 1.25431 19.3632C1.37188 18.4941 1.93827 17.7103 2.93005 17.0124C2.95161 16.9961 2.97588 16.9835 3.00015 16.9708C3.61776 16.6598 4.2591 16.1846 4.89265 15.5447C5.50017 14.9319 6.09726 14.171 6.66048 13.2573C7.17893 12.4158 7.56336 11.6221 7.91916 10.8821C8.92669 8.79609 9.73845 7.11554 12.6128 5.75397C14.1341 5.03369 15.6651 4.77897 17.1685 5.10035C18.4538 5.3766 19.709 6.07163 20.9156 7.25587C21.6376 8.20623 22.1512 9.26673 22.395 10.4675Z" fill="#EF2E27"/>
<path fill-rule="evenodd" clip-rule="evenodd" d="M21.9481 11.906C21.8936 11.2782 21.7698 10.6543 21.5712 10.0322C21.3754 9.42389 21.104 8.8144 20.7506 8.20873C19.5239 6.93544 18.2658 6.2014 16.9877 5.9231C15.6267 5.6255 14.237 5.85061 12.847 6.49422C10.2494 7.69832 9.50378 9.23989 8.58027 11.1489C8.19673 11.9405 7.78639 12.7915 7.2124 13.7159C6.57664 14.7432 5.89434 15.6024 5.19705 16.299C4.45578 17.0354 3.69674 17.5903 2.95867 17.9624C2.26064 18.4519 1.87152 18.941 1.80753 19.4314C1.80666 19.4386 1.80578 19.4458 1.80491 19.4531C1.74638 19.9609 2.01414 20.5436 2.62172 21.2043C2.62895 21.2124 2.63618 21.2204 2.64522 21.2292C4.63521 23.3943 7.16721 24.5084 9.81155 24.5468C12.4388 24.5856 15.1766 23.5532 17.6069 21.4223C19.0667 20.1419 20.2905 18.5996 21.0688 16.8824C21.7596 15.3559 22.103 13.6777 21.9481 11.906Z" fill="#EF2E27"/>
<path fill-rule="evenodd" clip-rule="evenodd" d="M22.1315 8.28006C25.0454 9.6762 25.9025 9.83271 28.1538 12.2803C25.2705 10.9019 24.5143 10.4973 22.1315 8.28006Z" fill="#537918"/>
</g>
<defs>
<clipPath id="clip0_4024_22">
<rect width="24" height="24" fill="white" transform="translate(9.20068) rotate(22.5421)"/>
</clipPath>
</defs>
</svg>
