<svg width="24" height="24" viewBox="0 0 24 24" fill="none" xmlns="http://www.w3.org/2000/svg">
<g clip-path="url(#clip0_4206_19)">
<path d="M3.51411 3.51303C1.248 5.77925 0 8.7933 0 11.9994C0 15.2054 1.248 18.2182 3.51411 20.4857C5.78021 22.7532 8.79411 24 12 24C15.2059 24 18.2185 22.7519 20.4859 20.4857C22.7533 18.2195 24 15.2054 24 12.0006C24 8.79583 22.752 5.78178 20.4859 3.51429C18.2198 1.2468 15.2059 0 12 0C8.79411 0 5.78147 1.24807 3.51411 3.51429V3.51303ZM22.7368 11.9994C22.7368 17.9201 17.9204 22.7368 12 22.7368C6.07958 22.7368 1.26316 17.9201 1.26316 11.9994C1.26316 6.07864 6.07958 1.26196 12 1.26196C17.9204 1.26196 22.7368 6.07864 22.7368 11.9994Z" fill="#A0A0A0"/>
<path d="M11.5288 4.18721L6.19502 9.30752C5.93499 9.55713 5.93499 9.96292 6.19502 10.2125C6.45504 10.4621 6.87774 10.4621 7.13776 10.2125L11.3328 6.18413V19.36C11.3328 19.7133 11.6315 20 11.9995 20C12.3675 20 12.6662 19.7133 12.6662 19.36V6.18413L16.8626 10.2113C17.1226 10.4609 17.5453 10.4609 17.8053 10.2113C17.936 10.0858 18 9.92195 18 9.75939C18 9.59682 17.9347 9.43169 17.804 9.30752L12.4702 4.18721C12.2102 3.9376 11.7875 3.9376 11.5275 4.18721H11.5288Z" fill="#A0A0A0"/>
</g>
<defs>
<clipPath id="clip0_4206_19">
<rect width="24" height="24" fill="white"/>
</clipPath>
</defs>
</svg>
